#N canvas -13 -13 3000 1836 10;
#X text 177 277 creation arguments are OSC address;
#X text 179 238 set message to change OSC address;
#X text 164 48 1 Set IP Address : network address;
#X text 164 68 2 Set Ports (sending and listening);
#X text 164 87 3 Set OSC Addresses (routing osc data;
#X text 155 26 Key Settings;
#X floatatom 43 194 5 0 0 0 - - -;
#N canvas -13 -13 3000 1836 oscReceive 0;
#X obj 55 184 netreceive -u -b;
#X msg 78 143 listen 0;
#X text 152 143 stop listening;
#X text 64 58 packets from network;
#X text 173 177 UDP packets \, binary output, f 13;
#X obj 45 314 print;
#X obj 45 272 oscparse;
#X text 150 114 listen on port 8000;
#X obj 177 269 oscparse;
#X obj 177 293 list trim;
#X floatatom 140 380 5 0 0 0 - - -;
#X text 241 267 Parse the OSC message;
#X obj 177 319 route unity;
#X obj 139 357 route trigger;
#X obj 140 407 s osctrig;
#X msg 66 115 listen 8000;
#X obj 66 84 loadbang;
#X floatatom 244 382 5 0 0 0 - - -;
#X obj 243 359 route tempo;
#X obj 244 409 s osctempo;
#X floatatom 339 382 5 0 0 0 - - -;
#X obj 338 359 route playseq;
#X obj 339 409 s oscplayseq;
#X floatatom 437 382 5 0 0 0 - - -;
#X obj 436 359 route colwall;
#X obj 437 409 s oscwall;
#X connect 0 0 6 0;
#X connect 0 0 8 0;
#X connect 1 0 0 0;
#X connect 6 0 5 0;
#X connect 8 0 9 0;
#X connect 9 0 12 0;
#X connect 10 0 14 0;
#X connect 12 0 13 0;
#X connect 12 0 18 0;
#X connect 12 0 21 0;
#X connect 12 0 24 0;
#X connect 13 0 10 0;
#X connect 15 0 0 0;
#X connect 16 0 15 0;
#X connect 17 0 19 0;
#X connect 18 0 17 0;
#X connect 20 0 22 0;
#X connect 21 0 20 0;
#X connect 23 0 25 0;
#X connect 24 0 23 0;
#X restore 47 142 pd oscReceive;
#X obj 47 36 tgl 15 0 empty empty empty 17 7 0 10 -262144 -1 -1 1 1
;
#X msg 47 61 \; pd dsp \$1;
#X obj 455 225 r osctrig;
#X obj 44 278 oscformat PD message;
#X msg 76 239 set PD message;
#N canvas 727 97 450 300 oscSend 0;
#X msg 158 207 disconnect;
#X obj 61 253 netsend -u -b;
#X obj 59 55 list prepend send;
#X obj 59 80 list trim;
#X msg 150 175 connect 127.0.0.1 8001;
#X obj 59 29 r oscOut;
#X text 301 163 send to port 8001;
#X msg 147 148 connect localhost 8001;
#X obj 147 108 loadbang;
#X connect 0 0 1 0;
#X connect 2 0 3 0;
#X connect 3 0 1 0;
#X connect 4 0 1 0;
#X connect 5 0 2 0;
#X connect 7 0 1 0;
#X connect 8 0 7 0;
#X restore 47 118 pd oscSend;
#X obj 44 313 s oscOut;
#X obj 968 378 *~;
#X obj 959 423 dac~;
#X obj 1032 346 vline~;
#X obj 968 314 noise~;
#X obj 1031 254 bng 15 250 50 0 empty empty empty 17 7 0 10 -262144
-1 -1;
#X obj 1327 240 r oscplayseq;
#X obj 1025 216 r oscwall;
#X msg 1032 294 1 25 \, 0 1000 75;
#X text 451 198 Tirgger when picking up rotating cube...;
#X text 946 189 Trigger noise burst when running into a wall;
#X text 1313 188 Sequence playback: tempo increases as more cubes are
collected.;
#X obj 452 1337 select 0 1 2 3 4 5 6 7 8;
#X floatatom 492 1594 5 0 0 0 - - -;
#X obj 492 1748 *~;
#X obj 483 1793 dac~;
#X obj 491 1563 mtof;
#X obj 489 1502 + 0;
#X obj 607 1654 vline~;
#X floatatom 796 1438 5 0 0 0 - - -;
#X obj 796 1385 loadbang;
#X msg 447 1408 0;
#X floatatom 452 1273 5 0 0 0 - - -;
#X msg 486 1408 2;
#X msg 527 1408 4;
#X msg 569 1408 5;
#X msg 606 1409 7;
#X msg 647 1409 9;
#X msg 689 1409 11;
#X msg 723 1409 12;
#X obj 452 1240 r osctrig;
#X obj 447 1668 osc~;
#X obj 499 1673 osc~;
#X msg 796 1412 60;
#X obj 501 1646 * 1.5;
#X msg 607 1602 0.85 100 \, 0 500 500;
#X text 448 1213 Old cube pick up...;
#X obj 455 433 f;
#X obj 507 452 + 1;
#X obj 455 690 f;
#X obj 520 690 f;
#X obj 579 692 f;
#X obj 639 694 f;
#X obj 701 695 f;
#X obj 761 694 f;
#X obj 825 693 f;
#X obj 895 693 f;
#X msg 473 621 60;
#X obj 455 842 mtof;
#X obj 455 1020 *~;
#X obj 455 1082 dac~;
#X obj 455 518 hradio 15 1 0 13 empty empty empty 0 -8 0 10 -262144
-1 -1 12;
#X obj 1242 557 loadbang;
#X floatatom 473 657 5 0 0 0 - - -;
#X floatatom 538 656 5 0 0 0 - - -;
#X floatatom 597 654 5 0 0 0 - - -;
#X floatatom 657 655 5 0 0 0 - - -;
#X floatatom 719 655 5 0 0 0 - - -;
#X floatatom 779 657 5 0 0 0 - - -;
#X floatatom 843 656 5 0 0 0 - - -;
#X floatatom 913 656 5 0 0 0 - - -;
#X obj 587 1001 vline~;
#X msg 538 620 65;
#X msg 597 618 67;
#X msg 657 618 69;
#X msg 719 619 71;
#X msg 779 620 67;
#X msg 843 621 62;
#X msg 912 623 67;
#X obj 962 694 f;
#X floatatom 980 655 5 0 0 0 - - -;
#X msg 980 622 72;
#X obj 1027 693 f;
#X floatatom 1045 656 5 0 0 0 - - -;
#X msg 1045 622 69;
#X obj 1092 693 f;
#X floatatom 1110 656 5 0 0 0 - - -;
#X msg 1110 623 65;
#X obj 1159 692 f;
#X floatatom 1177 656 5 0 0 0 - - -;
#X msg 1177 621 62;
#X obj 1224 693 f;
#X floatatom 1242 656 5 0 0 0 - - -;
#X msg 1242 620 64;
#X obj 455 395 metro 300;
#X obj 455 481 mod 13;
#X obj 455 551 select 0 1 2 3 4 5 6 7 8 9 10 11 12;
#X obj 455 916 osc~;
#X msg 588 858 0.5 1 \, 0 500 500;
#X obj 455 260 bng 15 250 50 0 empty empty empty 17 7 0 10 -262144
-1 -1;
#X msg 498 349 stop;
#X obj 498 315 bng 15 250 50 0 empty empty empty 17 7 0 10 -262144
-1 -1;
#X obj 498 275 delay 3900 1 msec;
#X floatatom 455 761 5 0 0 0 - - -;
#X obj 516 915 osc~;
#X obj 516 839 mtof;
#X obj 516 779 + 12;
#X obj 670 1007 metro 100;
#X obj 670 977 tgl 15 0 empty empty empty 17 7 0 10 -262144 -1 -1 0
1;
#N canvas 0 50 450 250 (subpatch) 0;
#X array array1 1000 float 1;
#A 0 0 0 0 0 0 0 0 0 0 0 0 0 0 0 0 0 0 0 0 0 0 0 0 0 0 0 0 0 0 0 0
0 0 0 0 0 0 0 0 0 0 0 0 0 0 0 0 0 0 0 0 0 0 0 0 0 0 0 0 0 0 0 0 0 0
0 0 0 0 0 0 0 0 0 0 0 0 0 0 0 0 0 0 0 0 0 0 0 0 0 0 0 0 0 0 0 0 0 0
0 0 0 0 0 0 0 0 0 0 0 0 0 0 0 0 0 0 0 0 0 0 0 0 0 0 0 0 0 0 0 0 0 0
0 0 0 0 0 0 0 0 0 0 0 0 0 0 0 0 0 0 0 0 0 0 0 0 0 0 0 0 0 0 0 0 0 0
0 0 0 0 0 0 0 0 0 0 0 0 0 0 0 0 0 0 0 0 0 0 0 0 0 0 0 0 0 0 0 0 0 0
0 0 0 0 0 0 0 0 0 0 0 0 0 0 0 0 0 0 0 0 0 0 0 0 0 0 0 0 0 0 0 0 0 0
0 0 0 0 0 0 0 0 0 0 0 0 0 0 0 0 0 0 0 0 0 0 0 0 0 0 0 0 0 0 0 0 0 0
0 0 0 0 0 0 0 0 0 0 0 0 0 0 0 0 0 0 0 0 0 0 0 0 0 0 0 0 0 0 0 0 0 0
0 0 0 0 0 0 0 0 0 0 0 0 0 0 0 0 0 0 0 0 0 0 0 0 0 0 0 0 0 0 0 0 0 0
0 0 0 0 0 0 0 0 0 0 0 0 0 0 0 0 0 0 0 0 0 0 0 0 0 0 0 0 0 0 0 0 0 0
0 0 0 0 0 0 0 0 0 0 0 0 0 0 0 0 0 0 0 0 0 0 0 0 0 0 0 0 0 0 0 0 0 0
0 0 0 0 0 0 0 0 0 0 0 0 0 0 0 0 0 0 0 0 0 0 0 0 0 0 0 0 0 0 0 0 0 0
0 0 0 0 0 0 0 0 0 0 0 0 0 0 0 0 0 0 0 0 0 0 0 0 0 0 0 0 0 0 0 0 0 0
0 0 0 0 0 0 0 0 0 0 0 0 0 0 0 0 0 0 0 0 0 0 0 0 0 0 0 0 0 0 0 0 0 0
0 0 0 0 0 0 0 0 0 0 0 0 0 0 0 0 0 0 0 0 0 0 0 0 0 0 0 0 0 0 0 0 0 0
0 0 0 0 0 0 0 0 0 0 0 0 0 0 0 0 0 0 0 0 0 0 0 0 0 0 0 0 0 0 0 0 0 0
0 0 0 0 0 0 0 0 0 0 0 0 0 0 0 0 0 0 0 0 0 0 0 0 0 0 0 0 0 0 0 0 0 0
0 0 0 0 0 0 0 0 0 0 0 0 0 0 0 0 0 0 0 0 0 0 0 0 0 0 0 0 0 0 0 0 0 0
0 0 0 0 0 0 0 0 0 0 0 0 0 0 0 0 0 0 0 0 0 0 0 0 0 0 0 0 0 0 0 0 0 0
0 0 0 0 0 0 0 0 0 0 0 0 0 0 0 0 0 0 0 0 0 0 0 0 0 0 0 0 0 0 0 0 0 0
0 0 0 0 0 0 0 0 0 0 0 0 0 0 0 0 0 0 0 0 0 0 0 0 0 0 0 0 0 0 0 0 0 0
0 0 0 0 0 0 0 0 0 0 0 0 0 0 0 0 0 0 0 0 0 0 0 0 0 0 0 0 0 0 0 0 0 0
0 0 0 0 0 0 0 0 0 0 0 0 0 0 0 0 0 0 0 0 0 0 0 0 0 0 0 0 0 0 0 0 0 0
0 0 0 0 0 0 0 0 0 0 0 0 0 0 0 0 0 0 0 0 0 0 0 0 0 0 0 0 0 0 0 0 0 0
0 0 0 0 0 0 0 0 0 0 0 0 0 0 0 0 0 0 0 0 0 0 0 0 0 0 0 0 0 0 0 0 0 0
0 0 0 0 0 0 0 0 0 0 0 0 0 0 0 0 0 0 0.257143 0 0 0 0 0 0 0 0 0 0 0
0 0 0 0 0 0 0 0 0 0 0 0 0 0 0 0 0 0 0 0 0 0 0 0 0 0 0 0 0 0 0 0 0 0
0 0 0 0 0 0 0 0 0 0 0 0 0 0 0 0 0 0 0 0 0 0 0 0 0 0 0 0 0 0 0 0 0 0
0 0 0 0 0 0 0 0 0 0 0 0 0 0 0 0 0 0 0 0 0;
#X coords 0 1 999 -1 200 140 1;
#X restore 809 920 graph;
#X obj 670 1039 tabwrite~ array1;
#X obj 1391 1970 *~;
#X obj 1382 2015 dac~;
#X obj 1398 1639 mtof;
#X obj 1397 1598 + 0;
#X obj 1380 1350 metro 4000;
#X obj 1382 1317 tgl 15 0 empty empty empty 17 7 0 10 -262144 -1 -1
0 1;
#X floatatom 1438 1321 5 0 0 0 - - -;
#X obj 1361 1384 f;
#X obj 1404 1386 + 1;
#X obj 1382 1451 select 0 1 2 3;
#X obj 1560 1843 vline~;
#X floatatom 1544 1536 5 0 0 0 - - -;
#X obj 1544 1483 loadbang;
#X obj 1381 1419 mod 4;
#X msg 1355 1504 0;
#X obj 1347 1839 phasor~;
#X floatatom 1345 1780 5 0 0 0 - - -;
#X obj 1422 1838 phasor~;
#X obj 1421 1807 * -1;
#X obj 1390 1897 +~;
#X obj 1388 1930 -~ 1;
#X msg 1423 1776 0;
#X msg 1471 1776 0.5;
#X obj 1444 1746 bng 15 250 50 0 empty empty empty 17 7 0 10 -262144
-1 -1;
#X obj 1443 1721 loadbang;
#X obj 1498 1270 r osctempo;
#X obj 1423 1244 loadbang;
#X msg 1439 1288 500;
#X obj 1329 1245 r oscplayseq;
#X msg 1394 1504 -5;
#X msg 1435 1504 -3;
#X msg 1477 1504 -1;
#X msg 1560 1791 0.5 25 \, 0 100 75;
#X msg 1544 1510 48;
#X obj 1335 730 log;
#X floatatom 1335 825 5 0 0 0 - - -;
#X obj 1470 889 vsl 15 128 0 1 0 0 empty empty empty 0 -9 0 10 -262144
-1 -1 2540 1;
#X obj 1335 877 osc~;
#X obj 1324 1059 dac~;
#X obj 1335 1020 *~;
#X obj 1262 877 osc~;
#X floatatom 1262 825 5 0 0 0 - - -;
#X floatatom 1183 823 5 0 0 0 - - -;
#X obj 1470 793 loadbang;
#X msg 1470 829 0.1;
#X obj 1262 774 * 50;
#X obj 1183 772 * 25;
#X obj 1335 772 * 100;
#X obj 1183 875 osc~;
#X obj 1335 371 tgl 15 0 empty empty empty 17 7 0 10 -262144 -1 -1
0 1;
#X floatatom 1335 662 5 0 0 0 - - -;
#X obj 1382 513 + 50;
#X obj 1335 609 line;
#X obj 1335 495 f;
#X msg 1335 562 \$1 \, 1 500;
#X msg 1605 808 1;
#X obj 1555 480 loadbang;
#X msg 1555 530 1;
#X floatatom 1555 579 5 0 0 0 - - -;
#X obj 1555 626 t b f;
#X obj 1555 680 f;
#X obj 1605 699 ==;
#X obj 1605 734 bng 15 250 50 0 empty empty empty 17 7 0 10 -262144
-1 -1;
#X floatatom 1395 397 5 0 0 0 - - -;
#X obj 1335 434 metro 100;
#X obj 1605 768 delay 51 1 msec;
#X text 1606 750 change 51 to 10 \, sounds like footsteps;
#X text 1324 1207 Old sequence with tempo change...;
#X connect 6 0 11 0;
#X connect 8 0 9 0;
#X connect 10 0 103 0;
#X connect 11 0 14 0;
#X connect 12 0 11 0;
#X connect 15 0 16 0;
#X connect 15 0 16 1;
#X connect 17 0 15 1;
#X connect 18 0 15 0;
#X connect 19 0 22 0;
#X connect 20 0 164 0;
#X connect 21 0 19 0;
#X connect 22 0 17 0;
#X connect 26 0 35 0;
#X connect 26 1 37 0;
#X connect 26 2 38 0;
#X connect 26 3 39 0;
#X connect 26 4 40 0;
#X connect 26 5 41 0;
#X connect 26 6 42 0;
#X connect 26 7 43 0;
#X connect 26 8 35 0;
#X connect 27 0 45 0;
#X connect 27 0 48 0;
#X connect 30 0 27 0;
#X connect 31 0 30 0;
#X connect 31 0 49 0;
#X connect 32 0 28 1;
#X connect 33 0 31 1;
#X connect 34 0 47 0;
#X connect 35 0 31 0;
#X connect 36 0 26 0;
#X connect 37 0 31 0;
#X connect 38 0 31 0;
#X connect 39 0 31 0;
#X connect 40 0 31 0;
#X connect 41 0 31 0;
#X connect 42 0 31 0;
#X connect 43 0 31 0;
#X connect 44 0 36 0;
#X connect 45 0 28 0;
#X connect 46 0 28 0;
#X connect 47 0 33 0;
#X connect 48 0 46 0;
#X connect 49 0 32 0;
#X connect 51 0 52 0;
#X connect 51 0 99 0;
#X connect 52 0 51 1;
#X connect 53 0 107 0;
#X connect 54 0 107 0;
#X connect 55 0 107 0;
#X connect 56 0 107 0;
#X connect 57 0 107 0;
#X connect 58 0 107 0;
#X connect 59 0 107 0;
#X connect 60 0 107 0;
#X connect 61 0 67 0;
#X connect 62 0 101 0;
#X connect 63 0 64 0;
#X connect 63 0 64 1;
#X connect 63 0 114 0;
#X connect 65 0 100 0;
#X connect 66 0 82 0;
#X connect 66 0 81 0;
#X connect 66 0 80 0;
#X connect 66 0 79 0;
#X connect 66 0 78 0;
#X connect 66 0 77 0;
#X connect 66 0 76 0;
#X connect 66 0 61 0;
#X connect 66 0 85 0;
#X connect 66 0 88 0;
#X connect 66 0 91 0;
#X connect 66 0 94 0;
#X connect 66 0 97 0;
#X connect 67 0 53 1;
#X connect 68 0 54 1;
#X connect 69 0 55 1;
#X connect 70 0 56 1;
#X connect 71 0 57 1;
#X connect 72 0 58 1;
#X connect 73 0 59 1;
#X connect 74 0 60 1;
#X connect 75 0 63 1;
#X connect 76 0 68 0;
#X connect 77 0 69 0;
#X connect 78 0 70 0;
#X connect 79 0 71 0;
#X connect 80 0 72 0;
#X connect 81 0 73 0;
#X connect 82 0 74 0;
#X connect 83 0 107 0;
#X connect 84 0 83 1;
#X connect 85 0 84 0;
#X connect 86 0 107 0;
#X connect 87 0 86 1;
#X connect 88 0 87 0;
#X connect 89 0 107 0;
#X connect 90 0 89 1;
#X connect 91 0 90 0;
#X connect 92 0 107 0;
#X connect 93 0 92 1;
#X connect 94 0 93 0;
#X connect 95 0 107 0;
#X connect 96 0 95 1;
#X connect 97 0 96 0;
#X connect 98 0 51 0;
#X connect 99 0 65 0;
#X connect 100 0 53 0;
#X connect 100 1 54 0;
#X connect 100 2 55 0;
#X connect 100 3 56 0;
#X connect 100 4 57 0;
#X connect 100 5 58 0;
#X connect 100 6 59 0;
#X connect 100 7 60 0;
#X connect 100 8 83 0;
#X connect 100 9 86 0;
#X connect 100 10 89 0;
#X connect 100 11 92 0;
#X connect 100 12 95 0;
#X connect 101 0 63 0;
#X connect 102 0 75 0;
#X connect 103 0 98 0;
#X connect 103 0 106 0;
#X connect 104 0 98 0;
#X connect 105 0 104 0;
#X connect 106 0 105 0;
#X connect 107 0 62 0;
#X connect 107 0 110 0;
#X connect 108 0 63 0;
#X connect 109 0 108 0;
#X connect 109 0 102 0;
#X connect 110 0 109 0;
#X connect 111 0 114 0;
#X connect 112 0 111 0;
#X connect 117 0 131 0;
#X connect 118 0 117 0;
#X connect 119 0 122 0;
#X connect 119 0 147 0;
#X connect 120 0 119 0;
#X connect 121 0 119 1;
#X connect 122 0 123 0;
#X connect 122 0 128 0;
#X connect 123 0 122 1;
#X connect 124 0 129 0;
#X connect 124 1 144 0;
#X connect 124 2 145 0;
#X connect 124 3 146 0;
#X connect 125 0 115 1;
#X connect 126 0 118 1;
#X connect 127 0 148 0;
#X connect 128 0 124 0;
#X connect 129 0 118 0;
#X connect 130 0 134 0;
#X connect 131 0 130 0;
#X connect 131 0 133 0;
#X connect 132 0 134 1;
#X connect 133 0 132 0;
#X connect 134 0 135 0;
#X connect 135 0 115 0;
#X connect 136 0 130 1;
#X connect 137 0 132 1;
#X connect 138 0 136 0;
#X connect 138 0 137 0;
#X connect 139 0 138 0;
#X connect 140 0 121 0;
#X connect 141 0 142 0;
#X connect 142 0 121 0;
#X connect 143 0 120 0;
#X connect 143 0 142 0;
#X connect 144 0 118 0;
#X connect 145 0 118 0;
#X connect 146 0 118 0;
#X connect 147 0 125 0;
#X connect 148 0 126 0;
#X connect 149 0 160 0;
#X connect 149 0 161 0;
#X connect 149 0 162 0;
#X connect 150 0 152 0;
#X connect 151 0 154 1;
#X connect 152 0 154 0;
#X connect 154 0 153 1;
#X connect 154 0 153 0;
#X connect 155 0 154 0;
#X connect 156 0 155 0;
#X connect 157 0 163 0;
#X connect 158 0 159 0;
#X connect 159 0 151 0;
#X connect 160 0 156 0;
#X connect 161 0 157 0;
#X connect 162 0 150 0;
#X connect 163 0 154 0;
#X connect 164 0 179 0;
#X connect 165 0 149 0;
#X connect 165 0 175 0;
#X connect 166 0 168 1;
#X connect 167 0 165 0;
#X connect 168 0 166 0;
#X connect 168 0 169 0;
#X connect 169 0 167 0;
#X connect 170 0 168 0;
#X connect 171 0 172 0;
#X connect 172 0 173 0;
#X connect 173 0 174 0;
#X connect 174 0 175 0;
#X connect 174 1 176 1;
#X connect 175 0 176 0;
#X connect 176 0 177 0;
#X connect 177 0 180 0;
#X connect 178 0 179 1;
#X connect 179 0 168 0;
#X connect 180 0 170 0;
